<?xml version="1.0" encoding="UTF-8" standalone="no"?>
<!-- Created with Inkscape (http://www.inkscape.org/) -->

<svg
   xmlns:dc="http://purl.org/dc/elements/1.1/"
   xmlns:cc="http://creativecommons.org/ns#"
   xmlns:rdf="http://www.w3.org/1999/02/22-rdf-syntax-ns#"
   xmlns:svg="http://www.w3.org/2000/svg"
   xmlns="http://www.w3.org/2000/svg"
   xmlns:sodipodi="http://sodipodi.sourceforge.net/DTD/sodipodi-0.dtd"
   xmlns:inkscape="http://www.inkscape.org/namespaces/inkscape"
   width="15"
   height="15"
   viewBox="0 0 3.9687499 3.9687501"
   version="1.1"
   id="svg4747"
   inkscape:version="0.92.1 r15371"
   sodipodi:docname="enemy_2.svg"
   inkscape:export-filename="C:\Users\Flex\Desktop\Bilder_LD38\enemy_2.png"
   inkscape:export-xdpi="96"
   inkscape:export-ydpi="96">
  <defs
     id="defs4741" />
  <sodipodi:namedview
     id="base"
     pagecolor="#ffffff"
     bordercolor="#666666"
     borderopacity="1.0"
     inkscape:pageopacity="0.0"
     inkscape:pageshadow="2"
     inkscape:zoom="22.4"
     inkscape:cx="8.8293095"
     inkscape:cy="7.0273656"
     inkscape:document-units="px"
     inkscape:current-layer="layer1"
     showgrid="false"
     units="px"
     inkscape:window-width="1049"
     inkscape:window-height="915"
     inkscape:window-x="879"
     inkscape:window-y="25"
     inkscape:window-maximized="0"
     inkscape:pagecheckerboard="true" />
  <metadata
     id="metadata4744">
    <rdf:RDF>
      <cc:Work
         rdf:about="">
        <dc:format>image/svg+xml</dc:format>
        <dc:type
           rdf:resource="http://purl.org/dc/dcmitype/StillImage" />
        <dc:title></dc:title>
      </cc:Work>
    </rdf:RDF>
  </metadata>
  <g
     inkscape:label="Ebene 1"
     inkscape:groupmode="layer"
     id="layer1"
     transform="translate(0,-293.03123)">
    <circle
       style="opacity:1;fill:#ffa1ff;fill-opacity:1;stroke:#000000;stroke-width:0;stroke-linecap:round;stroke-linejoin:miter;stroke-miterlimit:4;stroke-dasharray:none;stroke-dashoffset:0;stroke-opacity:0.08681671;paint-order:normal"
       id="path5917"
       cx="1.984375"
       cy="294.61874"
       r="1.5874995" />
    <ellipse
       style="opacity:1;fill:#08267e;fill-opacity:1;stroke:#000000;stroke-width:0;stroke-linecap:round;stroke-linejoin:miter;stroke-miterlimit:4;stroke-dasharray:none;stroke-dashoffset:0;stroke-opacity:0.08681671;paint-order:normal"
       id="path5921-2"
       cx="-25.376173"
       cy="292.92538"
       rx="0.1889881"
       ry="0.53152901"
       transform="rotate(-5.4437604)" />
    <ellipse
       style="opacity:1;fill:#08267e;fill-opacity:1;stroke:#000000;stroke-width:0;stroke-linecap:round;stroke-linejoin:miter;stroke-miterlimit:4;stroke-dasharray:none;stroke-dashoffset:0;stroke-opacity:0.08681671;paint-order:normal"
       id="path5921-2-9"
       cx="-26.099041"
       cy="292.9158"
       rx="0.1889881"
       ry="0.53152901"
       transform="rotate(-5.4437604)" />
    <ellipse
       style="opacity:1;fill:#891310;fill-opacity:1;stroke:#000000;stroke-width:0;stroke-linecap:round;stroke-linejoin:miter;stroke-miterlimit:4;stroke-dasharray:none;stroke-dashoffset:0;stroke-opacity:0.08681671;paint-order:normal"
       id="path5953"
       cx="2.1202102"
       cy="295.35815"
       rx="0.57287008"
       ry="0.74414057" />
    <ellipse
       style="opacity:1;fill:#c82e2b;fill-opacity:1;stroke:#000000;stroke-width:0;stroke-linecap:round;stroke-linejoin:miter;stroke-miterlimit:4;stroke-dasharray:none;stroke-dashoffset:0;stroke-opacity:0.08681671;paint-order:normal"
       id="path5955"
       cx="76.143837"
       cy="285.74847"
       rx="0.37797633"
       ry="0.29529405"
       transform="rotate(14.52506)" />
    <path
       style="opacity:1;fill:#c82e2b;fill-opacity:1;stroke:#000000;stroke-width:0;stroke-linecap:round;stroke-linejoin:miter;stroke-miterlimit:4;stroke-dasharray:none;stroke-dashoffset:0;stroke-opacity:0.08681671;paint-order:normal"
       d="M 2.4003906 9.1542969 A 1.8080358 2.6339287 0 0 0 1.9199219 10.9375 A 1.8080358 2.6339287 0 0 0 3.7285156 13.572266 A 1.8080358 2.6339287 0 0 0 5.46875 11.638672 A 5.9999981 5.9999981 0 0 1 2.4003906 9.1542969 z "
       transform="matrix(0.26458333,0,0,0.26458333,0,293.03123)"
       id="path5957" />
    <path
       style="opacity:1;fill:#c82e2b;fill-opacity:1;stroke:#000000;stroke-width:0;stroke-linecap:round;stroke-linejoin:miter;stroke-miterlimit:4;stroke-dasharray:none;stroke-dashoffset:0;stroke-opacity:0.08681671;paint-order:normal"
       d="M 12.285156 9.6074219 A 5.9999981 5.9999981 0 0 1 9.0625 11.791016 A 1.8080358 2.6339287 0 0 0 10.535156 12.902344 A 1.8080358 2.6339287 0 0 0 12.34375 10.267578 A 1.8080358 2.6339287 0 0 0 12.285156 9.6074219 z "
       transform="matrix(0.26458333,0,0,0.26458333,0,293.03123)"
       id="path5957-3" />
    <path
       style="opacity:1;fill:#dc628c;fill-opacity:1;stroke:#000000;stroke-width:0;stroke-linecap:round;stroke-linejoin:miter;stroke-miterlimit:4;stroke-dasharray:none;stroke-dashoffset:0;stroke-opacity:0.08681671;paint-order:normal"
       d="M 1.0898438 1.1289062 A 2.5340011 1.4106677 32.989599 0 0 0.19921875 1.4746094 A 2.5340011 1.4106677 32.989599 0 0 1.3144531 4.0117188 A 2.5340011 1.4106677 32.989599 0 0 1.7519531 4.2871094 A 5.9999981 5.9999981 0 0 1 3.1660156 1.8613281 A 2.5340011 1.4106677 32.989599 0 0 1.0898438 1.1289062 z "
       id="path6537"
       transform="matrix(0.26458333,0,0,0.26458333,0,293.03123)" />
    <path
       style="opacity:1;fill:#dc628c;fill-opacity:1;stroke:#000000;stroke-width:0;stroke-linecap:round;stroke-linejoin:miter;stroke-miterlimit:4;stroke-dasharray:none;stroke-dashoffset:0;stroke-opacity:0.08681671;paint-order:normal"
       d="M 13.111328 0.67773438 A 1.1845342 1.9782962 48.944939 0 0 11.416016 1.4570312 A 5.9999981 5.9999981 0 0 1 12.865234 3.3164062 A 1.1845342 1.9782962 48.944939 0 0 13.378906 2.8496094 A 1.1845342 1.9782962 48.944939 0 0 13.589844 0.79492188 A 1.1845342 1.9782962 48.944939 0 0 13.111328 0.67773438 z "
       transform="matrix(0.26458333,0,0,0.26458333,0,293.03123)"
       id="path6537-4" />
  </g>
</svg>
