<?xml version="1.0" encoding="UTF-8" standalone="no"?>
<!-- Created with Inkscape (http://www.inkscape.org/) -->

<svg
   xmlns:dc="http://purl.org/dc/elements/1.1/"
   xmlns:cc="http://creativecommons.org/ns#"
   xmlns:rdf="http://www.w3.org/1999/02/22-rdf-syntax-ns#"
   xmlns:svg="http://www.w3.org/2000/svg"
   xmlns="http://www.w3.org/2000/svg"
   xmlns:sodipodi="http://sodipodi.sourceforge.net/DTD/sodipodi-0.dtd"
   xmlns:inkscape="http://www.inkscape.org/namespaces/inkscape"
   width="15"
   height="15"
   viewBox="0 0 3.9687499 3.9687501"
   version="1.1"
   id="svg4747"
   inkscape:version="0.92.1 r15371"
   sodipodi:docname="enemy_5.svg"
   inkscape:export-filename="C:\Users\Flex\Desktop\Bilder_LD38\enemy_5.png"
   inkscape:export-xdpi="96"
   inkscape:export-ydpi="96">
  <defs
     id="defs4741" />
  <sodipodi:namedview
     id="base"
     pagecolor="#ffffff"
     bordercolor="#666666"
     borderopacity="1.0"
     inkscape:pageopacity="0.0"
     inkscape:pageshadow="2"
     inkscape:zoom="22.4"
     inkscape:cx="4.4990379"
     inkscape:cy="5.6439294"
     inkscape:document-units="px"
     inkscape:current-layer="layer1"
     showgrid="false"
     units="px"
     inkscape:window-width="1049"
     inkscape:window-height="915"
     inkscape:window-x="829"
     inkscape:window-y="14"
     inkscape:window-maximized="0"
     inkscape:pagecheckerboard="true" />
  <metadata
     id="metadata4744">
    <rdf:RDF>
      <cc:Work
         rdf:about="">
        <dc:format>image/svg+xml</dc:format>
        <dc:type
           rdf:resource="http://purl.org/dc/dcmitype/StillImage" />
        <dc:title></dc:title>
      </cc:Work>
    </rdf:RDF>
  </metadata>
  <g
     inkscape:groupmode="layer"
     id="layer2"
     inkscape:label="Ebene 2" />
  <g
     inkscape:groupmode="layer"
     id="layer3"
     inkscape:label="Ebene 3" />
  <g
     inkscape:label="Ebene 1"
     inkscape:groupmode="layer"
     id="layer1"
     transform="translate(0,-293.03123)">
    <path
       style="opacity:1;fill:#00ff00;fill-opacity:1;stroke:#000000;stroke-width:0.1370753;stroke-linecap:round;stroke-linejoin:miter;stroke-miterlimit:4;stroke-dasharray:none;stroke-dashoffset:0;stroke-opacity:0.08681671;paint-order:normal"
       d="m 3.0095659,293.06467 -0.3833753,0.35192 a 1.3886157,0.93312865 0 0 0 -0.5930942,-0.0899 1.3886157,0.93312865 0 0 0 -0.6846383,0.12247 l -0.39613588,-0.36845 -0.24189813,0.22583 0.32622961,0.30386 a 1.3886157,0.93312865 0 0 0 -0.37949158,0.53123 H 3.4090307 a 1.3886157,0.93312865 0 0 0 -0.4543911,-0.57826 l 0.29516,-0.2713 z m -0.5720113,0.62219 a 0.10779209,0.08858817 0 0 1 0.00776,0 0.10779209,0.08858817 0 0 1 0.1076335,0.0884 0.10779209,0.08858817 0 0 1 -0.1076335,0.0889 0.10779209,0.08858817 0 0 1 -0.1076336,-0.0889 0.10779209,0.08858817 0 0 1 0.099867,-0.0884 z m -0.97536,0.006 a 0.10779209,0.08858817 0 0 1 0.1081885,0.0889 0.10779209,0.08858817 0 0 1 -0.1081885,0.0884 0.10779209,0.08858817 0 0 1 -0.1076336,-0.0884 0.10779209,0.08858817 0 0 1 0.1076336,-0.0889 z"
       id="path6789"
       inkscape:connector-curvature="0" />
    <path
       style="opacity:1;fill:#00ff00;fill-opacity:1;stroke:#000000;stroke-width:0.11519898;stroke-linecap:round;stroke-linejoin:miter;stroke-miterlimit:4;stroke-dasharray:none;stroke-dashoffset:0;stroke-opacity:0.08681671;paint-order:normal"
       d="m 0.64606588,294.37932 v 1.74511 H 1.1770211 v 0.52607 a 0.24728773,0.21851748 0 0 0 -0.024966,0.0951 0.24728773,0.21851748 0 0 0 0.2468914,0.2186 0.24728773,0.21851748 0 0 0 0.2474463,-0.2186 0.24728773,0.21851748 0 0 0 -0.012761,-0.0682 v -0.55294 h 0.6846384 v 0.5085 a 0.24728773,0.21851748 0 0 0 -0.018864,0.0837 0.24728773,0.21851748 0 0 0 0.2474463,0.21859 0.24728773,0.21851748 0 0 0 0.2474464,-0.21859 0.24728773,0.21851748 0 0 0 -0.019419,-0.0837 v -0.5085 h 0.5947587 v -1.74511 z"
       id="rect6794"
       inkscape:connector-curvature="0" />
    <path
       style="opacity:1;fill:#00ff00;fill-opacity:1;stroke:#000000;stroke-width:0.12417538;stroke-linecap:round;stroke-linejoin:miter;stroke-miterlimit:4;stroke-dasharray:none;stroke-dashoffset:0;stroke-opacity:0.08681671;paint-order:normal"
       d="m 0.26380026,294.42555 a 0.21558417,0.18417477 0 0 0 -0.21471234,0.1743 h -5.5481e-4 v 0.01 1.30871 0.009 h 5.5481e-4 a 0.21558417,0.18417477 0 0 0 0.21471234,0.17472 0.21558417,0.18417477 0 0 0 0.21582194,-0.18405 0.21558417,0.18417477 0 0 0 -0.0127607,-0.0628 v -1.18402 a 0.21558417,0.18417477 0 0 0 0.0127607,-0.0619 0.21558417,0.18417477 0 0 0 -0.21582194,-0.18405 z"
       id="rect6862"
       inkscape:connector-curvature="0" />
    <path
       style="opacity:1;fill:#00ff00;fill-opacity:1;stroke:#000000;stroke-width:0.12417538;stroke-linecap:round;stroke-linejoin:miter;stroke-miterlimit:4;stroke-dasharray:none;stroke-dashoffset:0;stroke-opacity:0.08681671;paint-order:normal"
       d="m 3.7765144,294.37808 a 0.21558417,0.18417477 0 0 0 -0.2147123,0.1743 h -5.548e-4 v 0.01 1.30871 0.009 h 5.548e-4 a 0.21558417,0.18417477 0 0 0 0.2147123,0.17472 0.21558417,0.18417477 0 0 0 0.2158221,-0.18405 0.21558417,0.18417477 0 0 0 -0.012761,-0.0628 v -1.18402 a 0.21558417,0.18417477 0 0 0 0.012761,-0.0619 0.21558417,0.18417477 0 0 0 -0.2158221,-0.18405 z"
       id="rect6862-3"
       inkscape:connector-curvature="0" />
  </g>
</svg>
