<?xml version="1.0" encoding="UTF-8" standalone="no"?>
<!-- Created with Inkscape (http://www.inkscape.org/) -->

<svg
   xmlns:dc="http://purl.org/dc/elements/1.1/"
   xmlns:cc="http://creativecommons.org/ns#"
   xmlns:rdf="http://www.w3.org/1999/02/22-rdf-syntax-ns#"
   xmlns:svg="http://www.w3.org/2000/svg"
   xmlns="http://www.w3.org/2000/svg"
   xmlns:sodipodi="http://sodipodi.sourceforge.net/DTD/sodipodi-0.dtd"
   xmlns:inkscape="http://www.inkscape.org/namespaces/inkscape"
   width="20"
   height="20"
   viewBox="0 0 5.2916665 5.2916668"
   version="1.1"
   id="svg5111"
   inkscape:export-filename="C:\Users\Flex\Desktop\Bilder_LD38\Tower5.png"
   inkscape:export-xdpi="96"
   inkscape:export-ydpi="96"
   inkscape:version="0.92.1 r15371"
   sodipodi:docname="Tower.svg">
  <defs
     id="defs5105" />
  <sodipodi:namedview
     id="base"
     pagecolor="#ffffff"
     bordercolor="#666666"
     borderopacity="1.0"
     inkscape:pageopacity="0.0"
     inkscape:pageshadow="2"
     inkscape:zoom="31.678384"
     inkscape:cx="14.834051"
     inkscape:cy="11.548176"
     inkscape:document-units="px"
     inkscape:current-layer="layer1"
     showgrid="false"
     units="px"
     inkscape:window-width="1920"
     inkscape:window-height="1137"
     inkscape:window-x="-8"
     inkscape:window-y="-8"
     inkscape:window-maximized="1" />
  <metadata
     id="metadata5108">
    <rdf:RDF>
      <cc:Work
         rdf:about="">
        <dc:format>image/svg+xml</dc:format>
        <dc:type
           rdf:resource="http://purl.org/dc/dcmitype/StillImage" />
        <dc:title />
      </cc:Work>
    </rdf:RDF>
  </metadata>
  <g
     inkscape:label="Ebene 1"
     inkscape:groupmode="layer"
     id="layer1"
     transform="translate(0,-291.70832)">
    <path
       style="opacity:1;fill:#000000;fill-opacity:1;stroke:#000000;stroke-width:0.14200109;stroke-linecap:round;stroke-linejoin:miter;stroke-miterlimit:4;stroke-dasharray:none;stroke-dashoffset:0;stroke-opacity:0.08681671;paint-order:normal"
       d="m 4.333087,291.82736 -3.57940388,2.22014 -0.0605507,0.0371 0.12853776,0.68913 -0.74732471,1.87471 0.4015476,0.18468 0.37764601,-0.94677 a 1.2911996,1.3856361 0 0 0 1.24554112,1.02656 1.2911996,1.3856361 0 0 0 1.2912199,-1.38565 1.2911996,1.3856361 0 0 0 -0.00319,-0.0718 l 1.8388331,-2.46752 z m -3.86303676,1.3452 0.66977716,0.58937 z m 0.88807876,1.22093 a 1.2911996,1.3856361 0 0 0 -0.019652,0.016 l 0.00743,-0.012 z m 0.740951,0.025 a 1.0329597,1.108509 0 0 1 1.033082,1.10864 1.0329597,1.108509 0 0 1 -1.033082,1.10865 1.0329597,1.108509 0 0 1 -1.0330821,-1.10865 1.0329597,1.108509 0 0 1 0.023901,-0.23369 l 0.1561574,-0.39102 5.312e-4,-0.001 a 1.0329597,1.108509 0 0 1 0.8524919,-0.48279 z m 1.0134295,0.25251 0.036118,0.0308 0.00478,0.0274 a 1.2911996,1.3856361 0 0 0 -0.040898,-0.0581 z M 2.09908,295.25018 A 0.25823992,0.27712723 0 0 0 1.8409422,295.5272 0.25823992,0.27712723 0 0 0 2.09908,295.80423 0.25823992,0.27712723 0 0 0 2.3572177,295.5272 0.25823992,0.27712723 0 0 0 2.09908,295.25018 Z"
       id="path4493"
       inkscape:connector-curvature="0" />
    <path
       style="opacity:1;fill:#000000;fill-opacity:1;stroke:#000000;stroke-width:0.13229166;stroke-linecap:round;stroke-linejoin:miter;stroke-miterlimit:4;stroke-dasharray:none;stroke-dashoffset:0;stroke-opacity:0.08681671;paint-order:normal"
       id="path4554"
       d="m 1.538443,294.3421 c -0.054019,0.0342 -0.1070651,0.0735 -0.1704395,0.0856 0.00504,-0.005 -0.021376,0.01 -0.016252,0.007 0.2127832,-0.1217 0.03274,-0.0176 -0.030231,0.0173 -0.00268,10e-4 -0.00535,0.002 -0.00803,0.004 -0.00276,9.2e-4 -0.00561,0.002 -0.00827,0.003 -0.00239,10e-4 -0.00911,0.005 -0.00684,0.004 0.033125,-0.019 0.066223,-0.038 0.099396,-0.0568 0.00231,-0.001 -0.00449,0.003 -0.00679,0.004 -0.037704,0.0216 -0.075485,0.043 -0.1132276,0.0645 -0.016904,0.004 -0.02737,-0.0115 -0.036395,-0.0234 -0.013835,-0.0137 -0.028911,-0.0264 -0.043663,-0.0392 -0.00716,-0.003 -0.011494,-0.0111 -0.018986,-0.0134 -0.00102,-3.1e-4 -0.00251,-4.2e-4 -0.00317,4e-4 -9.155e-4,0.001 -0.00191,0.005 -6.139e-4,0.004 0.035311,-0.0191 0.069464,-0.0402 0.1041962,-0.0604 -0.00263,0.002 -0.00161,3.2e-4 -0.00173,0.004 0,0 -0.110216,0.0579 -0.110216,0.0579 v 0 c -0.00167,-0.008 -9.287e-4,-0.004 -0.0022,-0.0122 0.1021266,-0.0628 0.082743,-0.0904 0.137672,-0.0463 0.015039,0.0137 0.031369,0.026 0.045107,0.041 0.00806,0.01 0.014231,0.0173 0.026767,0.009 -0.033054,0.0192 -0.06611,0.0383 -0.09916,0.0575 -0.00229,0.001 0.00458,-0.003 0.00687,-0.004 0.037662,-0.0217 0.07516,-0.0437 0.1129832,-0.0652 0.00719,-0.004 0.015885,-0.006 0.022714,-0.0105 0.041435,-0.0214 0.011265,-0.006 -0.090631,0.053 -0.00253,0.001 0.00503,-0.003 0.00757,-0.004 0.047438,-0.0271 0.082043,-0.0585 0.1313749,-0.07 0.010766,-0.003 0.021142,-0.006 0.031341,-0.0104 0.00374,-0.002 0.014556,-0.007 0.011046,-0.005 -0.05866,0.0349 -0.1303974,0.0751 -0.085702,0.05 0,0 0.1155013,-0.0452 0.1155013,-0.0452 z"
       inkscape:connector-curvature="0" />
    <path
       style="opacity:1;fill:#000000;fill-opacity:1;stroke:#000000;stroke-width:0.13229166;stroke-linecap:round;stroke-linejoin:miter;stroke-miterlimit:4;stroke-dasharray:none;stroke-dashoffset:0;stroke-opacity:0.08681671;paint-order:normal"
       id="path4556"
       d="m 1.3446352,294.48878 c -0.016617,-0.0192 -0.033907,-0.0377 -0.050938,-0.0565 -0.010471,-0.0123 -0.019231,-0.0256 -0.027379,-0.0395 -10e-4,-0.002 -0.002,-0.004 -0.00301,-0.006 0,0 0.1081191,-0.061 0.1081191,-0.061 v 0 c 7.938e-4,0.002 0.00158,0.004 0.00238,0.005 0.00762,0.0132 0.015672,0.026 0.025448,0.0378 0.016416,0.0186 0.032546,0.0375 0.050449,0.0547 0,0 -0.1050709,0.0657 -0.1050709,0.0657 z"
       inkscape:connector-curvature="0" />
    <path
       style="opacity:1;fill:#000000;fill-opacity:1;stroke:#000000;stroke-width:0.13229166;stroke-linecap:round;stroke-linejoin:miter;stroke-miterlimit:4;stroke-dasharray:none;stroke-dashoffset:0;stroke-opacity:0.08681671;paint-order:normal"
       id="path4558"
       d="m 3.2326384,294.9462 c -0.021974,-0.0297 -0.042555,-0.0605 -0.063396,-0.091 -0.027269,-0.0409 -0.050436,-0.0842 -0.076695,-0.12575 -0.020542,-0.0273 -0.037208,-0.057 -0.054026,-0.0866 -0.01384,-0.0266 -0.023543,-0.055 -0.035968,-0.0822 -0.00592,-0.0129 -0.00315,-0.007 -0.00833,-0.0192 0,0 0.1079214,-0.0602 0.1079214,-0.0602 v 0 c 0.00467,0.0123 0.00212,0.006 0.00769,0.0189 0.011732,0.0271 0.021124,0.0552 0.034896,0.0814 0.016812,0.0294 0.032852,0.0592 0.052757,0.0867 0.025786,0.0415 0.048269,0.0851 0.076175,0.12537 0.021259,0.0299 0.041463,0.0608 0.065221,0.0887 0,0 -0.1062448,0.0638 -0.1062448,0.0638 z"
       inkscape:connector-curvature="0" />
    <path
       style="fill:none;stroke:#000000;stroke-width:0.26458332px;stroke-linecap:butt;stroke-linejoin:miter;stroke-opacity:1"
       d="m 1.453278,293.90968 c -0.2188767,-0.39416 -0.63267988,-0.169 -0.98322778,-0.73712 v 0"
       id="path4565"
       inkscape:connector-curvature="0"
       sodipodi:nodetypes="ccc" />
  </g>
</svg>
