<?xml version="1.0" encoding="UTF-8" standalone="no"?>
<!-- Created with Inkscape (http://www.inkscape.org/) -->

<svg
   xmlns:dc="http://purl.org/dc/elements/1.1/"
   xmlns:cc="http://creativecommons.org/ns#"
   xmlns:rdf="http://www.w3.org/1999/02/22-rdf-syntax-ns#"
   xmlns:svg="http://www.w3.org/2000/svg"
   xmlns="http://www.w3.org/2000/svg"
   xmlns:sodipodi="http://sodipodi.sourceforge.net/DTD/sodipodi-0.dtd"
   xmlns:inkscape="http://www.inkscape.org/namespaces/inkscape"
   width="440"
   height="440"
   viewBox="0 0 116.41667 116.41667"
   version="1.1"
   id="svg8"
   inkscape:version="0.92.1 r15371"
   sodipodi:docname="world.svg"
   inkscape:export-filename="C:\Users\Flex\Desktop\Bilder_LD38\world.png"
   inkscape:export-xdpi="96"
   inkscape:export-ydpi="96">
  <defs
     id="defs2">
    <inkscape:perspective
       sodipodi:type="inkscape:persp3d"
       inkscape:vp_x="81.110302 : 279.11609 : 1"
       inkscape:vp_y="578.4621 : 237.86696 : 0"
       inkscape:vp_z="125.58648 : 142.68288 : 1"
       inkscape:persp3d-origin="74.714523 : 199.12509 : 1"
       id="perspective4695" />
  </defs>
  <sodipodi:namedview
     id="base"
     pagecolor="#ffffff"
     bordercolor="#666666"
     borderopacity="1.0"
     inkscape:pageopacity="0.0"
     inkscape:pageshadow="2"
     inkscape:zoom="1.4"
     inkscape:cx="369.84567"
     inkscape:cy="223.61554"
     inkscape:document-units="px"
     inkscape:current-layer="layer1"
     showgrid="false"
     inkscape:window-width="1920"
     inkscape:window-height="1137"
     inkscape:window-x="-8"
     inkscape:window-y="-8"
     inkscape:window-maximized="1"
     inkscape:pagecheckerboard="true"
     units="px" />
  <metadata
     id="metadata5">
    <rdf:RDF>
      <cc:Work
         rdf:about="">
        <dc:format>image/svg+xml</dc:format>
        <dc:type
           rdf:resource="http://purl.org/dc/dcmitype/StillImage" />
        <dc:title />
      </cc:Work>
    </rdf:RDF>
  </metadata>
  <g
     inkscape:label="Ebene 1"
     inkscape:groupmode="layer"
     id="layer1"
     transform="translate(0,-180.58333)">
    <g
       id="g53"
       transform="matrix(0.97345401,0,0,0.97429426,0,7.6346033)">
      <path
         inkscape:connector-curvature="0"
         id="path17"
         d="M 54.113084,296.89422 C 39.573813,295.33911 26.681944,288.98817 16.504455,278.36703 -1.8042582,259.26019 -5.2573772,230.31229 8.0388898,207.39917 21.082953,184.92066 46.768593,173.48155 72.250014,178.80271 c 29.182966,6.09413 49.738796,33.73811 47.116036,63.36279 -0.99717,11.26331 -5.16996,22.29575 -11.71093,30.96254 -0.94137,1.24733 -3.33817,3.9392 -5.32621,5.98195 -8.840506,9.08372 -19.631206,14.81917 -32.162846,17.09511 -3.1645,0.57472 -13.12491,1.0023 -16.05298,0.68912 z"
         style="fill:#61ad25;fill-opacity:1;stroke-width:0.37797621" />
    </g>
    <path
       style="fill:#e3dedb;stroke:#000000;stroke-width:0.09777778;stroke-linecap:butt;stroke-linejoin:miter;stroke-miterlimit:4;stroke-dasharray:none;stroke-opacity:1"
       d="m 57.522059,236.34512 -1.163898,-0.83687 -0.08595,-4.29501 1.249805,-0.006 z"
       id="path4754"
       inkscape:connector-curvature="0" />
    <path
       style="fill:#ffdd55;fill-opacity:1;stroke:#000000;stroke-width:0.25911111;stroke-linecap:butt;stroke-linejoin:miter;stroke-miterlimit:4;stroke-dasharray:none;stroke-opacity:1"
       d="m 24.934162,190.59689 c 6.115176,0.43979 9.255356,-0.0657 14.773083,0.28795 14.683793,0.94123 19.125623,1.07532 29.763721,12.27887 8.963097,9.7158 15.310177,17.07082 13.994179,29.93881 -0.535278,5.07637 -1.095199,8.32476 -4.324012,11.10246 -3.251822,2.42681 -9.388879,6.56899 -12.014051,9.07788 -4.6354,3.44437 -6.09261,9.1713 -6.253131,14.18313 0.241888,4.11727 -1.121207,7.43238 0.93204,9.42413 8.456213,8.20295 32.198624,0.35865 43.243709,-3.12786 -3.00531,3.84255 -7.219148,7.96103 -12.053862,11.6292 -15.147228,-1.41832 -30.165545,0.79721 -36.449103,-3.78582 -4.914599,-3.58456 -2.877373,-12.83272 -2.020335,-21.2767 1.592662,-7.72665 4.443991,-7.9524 10.328022,-12.82623 12.995146,-7.84361 13.867529,-17.70583 9.57043,-29.15738 -1.574362,-4.01516 -4.285223,-7.49417 -6.667426,-9.67029 -4.630193,-4.22964 -8.49245,-6.57624 -15.439642,-8.28817 -8.306243,-2.04681 -19.898912,-2.49418 -27.685812,-1.23033 -7.126089,1.1566 -10.760869,3.96348 -12.078327,3.78523 3.050668,-3.48349 7.953788,-9.54942 12.380517,-12.34488 z"
       id="path4518"
       inkscape:connector-curvature="0"
       sodipodi:nodetypes="cscccccsccscccssscc" />
    <rect
       style="fill:#c8beb7;fill-opacity:1;stroke:#000000;stroke-width:0.09777778;stroke-miterlimit:4;stroke-dasharray:none;stroke-opacity:1"
       id="rect4718"
       width="6.242126"
       height="5.1378055"
       x="57.522057"
       y="231.20732" />
    <path
       style="fill:#ff0000;stroke:#000000;stroke-width:0.15920721px;stroke-linecap:butt;stroke-linejoin:miter;stroke-opacity:1"
       d="m 54.17228,232.16953 5.512369,-2.7636 6.817917,3.1202 z"
       id="path4727"
       inkscape:connector-curvature="0" />
    <rect
       style="fill:#663310;fill-opacity:1;stroke:#010000;stroke-width:0.09777778;stroke-miterlimit:4;stroke-dasharray:none;stroke-opacity:1"
       id="rect4731"
       width="1.2473215"
       height="2.0326722"
       x="59.737038"
       y="234.26224" />
    <rect
       style="fill:#104a66;fill-opacity:1;stroke:#010000;stroke-width:0.09777778;stroke-miterlimit:4;stroke-dasharray:none;stroke-opacity:1"
       id="rect4733"
       width="0.83154762"
       height="0.78535056"
       x="61.885204"
       y="233.3152" />
    <rect
       style="fill:#104a66;fill-opacity:1;stroke:#010000;stroke-width:0.09777778;stroke-miterlimit:4;stroke-dasharray:none;stroke-opacity:1"
       id="rect4733-9"
       width="0.83154762"
       height="0.78535056"
       x="58.18943"
       y="233.24591" />
    <path
       style="fill:#784421;stroke:#000000;stroke-width:0.18057363px;stroke-linecap:butt;stroke-linejoin:miter;stroke-opacity:1"
       d="m 50.360979,232.19371 0.904286,0.0345 c -0.289648,-1.11017 -0.125889,-2.11682 -0.03014,-3.13899 l -0.663141,-0.13795 c 0.01756,1.05782 0.137459,2.18464 -0.211,3.24246 z"
       id="path4758"
       inkscape:connector-curvature="0"
       sodipodi:nodetypes="ccccc" />
    <path
       style="fill:#008000;stroke:#000000;stroke-width:0.18057363px;stroke-linecap:butt;stroke-linejoin:miter;stroke-opacity:1"
       d="m 49.609441,228.45167 c -1.166987,-0.57746 -1.038327,-1.65385 0.362343,-1.26834 0.300123,-2.10512 3.907422,-0.36569 1.886306,0.91466 0.207079,-0.10098 0.501745,0.0701 0.819477,0.31283 1.130554,1.01315 -0.909621,2.60054 -1.868195,0.67649 -0.984902,1.60505 -1.68198,0.78592 -1.199931,-0.63564 z"
       id="path4762"
       inkscape:connector-curvature="0"
       sodipodi:nodetypes="cccccc" />
    <path
       style="fill:#784421;stroke:#000000;stroke-width:0.18057363px;stroke-linecap:butt;stroke-linejoin:miter;stroke-opacity:1"
       d="m 65.999822,230.41773 0.904288,0.0345 c -0.289647,-1.11017 -0.125888,-2.11682 -0.03012,-3.13899 l -0.663139,-0.13797 c 0.0176,1.05783 0.137456,2.18464 -0.211004,3.24247 z"
       id="path4758-8"
       inkscape:connector-curvature="0"
       sodipodi:nodetypes="ccccc" />
    <path
       style="fill:#008000;stroke:#000000;stroke-width:0.18057363px;stroke-linecap:butt;stroke-linejoin:miter;stroke-opacity:1"
       d="m 65.248283,226.67568 c -1.166977,-0.57745 -1.038322,-1.65385 0.362345,-1.26834 0.300129,-2.10512 3.907425,-0.36569 1.886309,0.91466 0.207074,-0.10097 0.501747,0.0701 0.819476,0.31283 1.130555,1.01316 -0.909617,2.60054 -1.868191,0.6765 -0.984906,1.60504 -1.681984,0.78592 -1.199939,-0.63565 z"
       id="path4762-3"
       inkscape:connector-curvature="0"
       sodipodi:nodetypes="cccccc" />
    <path
       style="fill:#0000ff;stroke:#000000;stroke-width:0.25870371px;stroke-linecap:butt;stroke-linejoin:miter;stroke-opacity:1"
       d="m 61.402229,242.9158 c -1.095823,1.8598 -5.489528,0.0156 -6.100449,1.52091 -0.404205,0.99595 -3.553553,4.16436 -4.930737,4.13624 -8.61838,-1.60048 -1.790527,-6.86172 2.293032,-9.45626 3.808034,-2.41949 9.548224,-1.99779 8.738154,3.79911 z"
       id="path45"
       inkscape:connector-curvature="0"
       sodipodi:nodetypes="cscsc" />
    <ellipse
       style="fill:#ac9d93;stroke-width:0.25870371"
       id="path47"
       cx="26.521448"
       cy="194.28818"
       rx="1.2086523"
       ry="0.52266043" />
    <ellipse
       style="fill:#ac9d93;stroke-width:0.25870371"
       id="path51"
       cx="69.269714"
       cy="207.81052"
       rx="0.29399645"
       ry="0.26133022" />
    <ellipse
       style="fill:#ac9d93;stroke-width:0.25870371"
       id="path53"
       cx="72.873421"
       cy="213.72163"
       rx="0.5553267"
       ry="0.52266043" />
    <ellipse
       style="fill:#ac9d93;stroke-width:0.25870371"
       id="path55"
       cx="55.76371"
       cy="197.5652"
       rx="0.39199534"
       ry="0.26133022" />
    <ellipse
       style="fill:#ac9d93;stroke-width:0.25870371"
       id="path59"
       cx="80.012863"
       cy="227.35933"
       rx="0.45732787"
       ry="0.22866394" />
    <ellipse
       style="fill:#ac9d93;stroke-width:0.25870371"
       id="path61"
       cx="75.91407"
       cy="242.38861"
       rx="1.0126547"
       ry="0.19599767" />
    <ellipse
       style="fill:#ac9d93;stroke-width:0.25870371"
       id="path63"
       cx="78.432465"
       cy="233.02068"
       rx="0.32666275"
       ry="0.48999414" />
    <ellipse
       style="fill:#ac9d93;stroke-width:0.25870371"
       id="path65"
       cx="57.808628"
       cy="259.5899"
       rx="0.26133022"
       ry="0.78399068" />
    <ellipse
       style="fill:#ac9d93;stroke-width:0.25870371"
       id="path67"
       cx="57.570744"
       cy="269.47849"
       rx="0.29399645"
       ry="0.22866394" />
    <ellipse
       style="fill:#ac9d93;stroke-width:0.25870371"
       id="path69"
       cx="59.088238"
       cy="272.65158"
       rx="0.42466158"
       ry="0.32666275" />
    <ellipse
       style="fill:#ac9d93;stroke-width:0.25870371"
       id="path71"
       cx="79.382912"
       cy="281.87091"
       rx="0.58799291"
       ry="0.22866394" />
    <ellipse
       style="fill:#ac9d93;stroke-width:0.25870371"
       id="path73"
       cx="84.919846"
       cy="282.1842"
       rx="0.35932904"
       ry="0.32666275" />
    <ellipse
       style="fill:#ac9d93;stroke-width:0.25870371"
       id="path75"
       cx="94.783577"
       cy="280.02969"
       rx="0.32666275"
       ry="0.26133022" />
    <ellipse
       style="fill:#ac9d93;stroke-width:0.25870371"
       id="path77"
       cx="98.405083"
       cy="277.24866"
       rx="0.19599767"
       ry="0.32666275" />
    <ellipse
       style="fill:#ac9d93;stroke-width:0.25870371"
       id="path79"
       cx="91.329857"
       cy="281.89615"
       rx="0.13066511"
       ry="0.5553267" />
    <circle
       style="fill:#ac9d93;stroke-width:0.25870371"
       id="path81"
       cx="72.318085"
       cy="281.86349"
       r="0.19599767" />
    <ellipse
       style="fill:#ac9d93;stroke-width:0.25870371"
       id="path83"
       cx="60.69186"
       cy="279.40314"
       rx="0.48999414"
       ry="0.94732201" />
    <ellipse
       style="fill:#ac9d93;stroke-width:0.25870371"
       id="path85"
       cx="56.431877"
       cy="265.49469"
       rx="0.45732787"
       ry="0.42466158" />
    <ellipse
       style="fill:#ac9d93;stroke-width:0.25870371"
       id="path87"
       cx="56.458599"
       cy="275.95087"
       rx="0.42466158"
       ry="0.19599767" />
    <ellipse
       style="fill:#ac9d93;stroke-width:0.25870371"
       id="path89"
       cx="60.045952"
       cy="254.38744"
       rx="0.39199534"
       ry="0.16333137" />
    <ellipse
       style="fill:#ac9d93;stroke-width:0.25870371"
       id="path91"
       cx="72.998566"
       cy="245.50037"
       rx="0.29399645"
       ry="0.35932904" />
    <ellipse
       style="fill:#ac9d93;stroke-width:0.25870371"
       id="path93"
       cx="78.762253"
       cy="221.2245"
       rx="0.13066511"
       ry="0.22866394" />
    <ellipse
       style="fill:#ac9d93;stroke-width:0.25870371"
       id="path95"
       cx="64.001549"
       cy="200.96843"
       rx="0.62065923"
       ry="0.6533255" />
    <ellipse
       style="fill:#ac9d93;stroke-width:0.25870371"
       id="path97"
       cx="47.096745"
       cy="195.52504"
       rx="0.62065923"
       ry="0.26133022" />
    <ellipse
       style="fill:#ac9d93;stroke-width:0.25870371"
       id="path99"
       cx="37.66658"
       cy="195.00981"
       rx="0.42466158"
       ry="0.16333137" />
    <ellipse
       style="fill:#ac9d93;stroke-width:0.25870371"
       id="path101"
       cx="31.746563"
       cy="194.93854"
       rx="0.52266043"
       ry="0.097998828" />
    <ellipse
       style="fill:#ac9d93;stroke-width:0.25870371"
       id="path103"
       cx="22.632677"
       cy="197.35583"
       rx="0.22866394"
       ry="0.35932904" />
    <ellipse
       style="fill:#ac9d93;stroke-width:0.25870371"
       id="path105"
       cx="20.273277"
       cy="198.9446"
       rx="0.75132436"
       ry="0.45732787" />
    <ellipse
       style="fill:#ac9d93;stroke-width:0.25870371"
       id="path107"
       cx="66.012001"
       cy="250.98216"
       rx="0.4619709"
       ry="0.64675927" />
    <path
       style="fill:#784421;stroke:#000000;stroke-width:0.18057364px;stroke-linecap:butt;stroke-linejoin:miter;stroke-opacity:1"
       d="m 67.35649,241.06103 0.904288,0.0345 c -0.289647,-1.11017 -0.125888,-2.11682 -0.03012,-3.13899 l -0.663139,-0.13797 c 0.0176,1.05783 0.137456,2.18464 -0.211004,3.24247 z"
       id="path4758-8-9"
       inkscape:connector-curvature="0"
       sodipodi:nodetypes="ccccc" />
    <path
       style="fill:#008000;stroke:#000000;stroke-width:0.18057364px;stroke-linecap:butt;stroke-linejoin:miter;stroke-opacity:1"
       d="m 66.604951,237.31898 c -1.166977,-0.57745 -1.038322,-1.65385 0.362345,-1.26834 0.300129,-2.10512 3.907425,-0.36569 1.886309,0.91466 0.207074,-0.10097 0.501747,0.0701 0.819476,0.31283 1.130555,1.01316 -0.909617,2.60054 -1.868191,0.6765 -0.984906,1.60504 -1.681984,0.78592 -1.199939,-0.63565 z"
       id="path4762-3-8"
       inkscape:connector-curvature="0"
       sodipodi:nodetypes="cccccc" />
    <path
       style="fill:none;stroke:#000000;stroke-width:0.26458335px;stroke-linecap:butt;stroke-linejoin:miter;stroke-opacity:1"
       d="m 44.354198,248.34633 1.286428,1.45389 z"
       id="path4559"
       inkscape:connector-curvature="0" />
    <path
       style="fill:none;stroke:#000000;stroke-width:0.26458335px;stroke-linecap:butt;stroke-linejoin:miter;stroke-opacity:1"
       d="m 50.371043,248.57295 0.96285,1.32177 z"
       id="path4561"
       inkscape:connector-curvature="0" />
    <path
       style="fill:none;stroke:#000000;stroke-width:0.26458335px;stroke-linecap:butt;stroke-linejoin:miter;stroke-opacity:1"
       d="m 44.354198,248.34633 10.546845,-0.10526 1.181177,1.84263 -0.661459,-0.85044 -10.310611,0.0108 0.530476,0.5562 z"
       id="path4565"
       inkscape:connector-curvature="0" />
    <path
       style="fill:none;stroke:#000000;stroke-width:0.26458335px;stroke-linecap:butt;stroke-linejoin:miter;stroke-opacity:1"
       d="m 70.492561,239.21689 1.748139,1.65364 -0.944938,-0.85044 0.01077,-16.97244 0.650701,0.9557 -1.406652,-1.85339 z"
       id="path4571"
       inkscape:connector-curvature="0" />
    <path
       style="fill:none;stroke:#000000;stroke-width:0.26458335px;stroke-linecap:butt;stroke-linejoin:miter;stroke-opacity:1"
       d="m 44.354198,222.14996 1.711651,1.99513 -0.955699,-1.09744 h 26.19637 l -0.755952,-0.89769 z"
       id="path4573"
       inkscape:connector-curvature="0" />
    <path
       style="fill:none;stroke:#000000;stroke-width:0.26458335px;stroke-linecap:butt;stroke-linejoin:miter;stroke-opacity:1"
       d="m 44.354198,248.34633 v -26.19637 l 0.755952,0.89769 v 26.19637 z"
       id="path4575"
       inkscape:connector-curvature="0" />
    <path
       style="fill:none;stroke:#000000;stroke-width:0.26458335px;stroke-linecap:butt;stroke-linejoin:miter;stroke-opacity:1"
       d="m 44.317709,240.39806 1.74814,1.6064 z"
       id="path4577"
       inkscape:connector-curvature="0" />
    <path
       style="fill:none;stroke:#000000;stroke-width:0.26458335px;stroke-linecap:butt;stroke-linejoin:miter;stroke-opacity:1"
       d="m 44.270463,231.61012 1.606399,1.46466 z"
       id="path4579"
       inkscape:connector-curvature="0" />
    <path
       style="fill:none;stroke:#000000;stroke-width:0.26458335px;stroke-linecap:butt;stroke-linejoin:miter;stroke-opacity:1"
       d="m 52.06622,222.30245 1.27567,1.88988 z"
       id="path4581"
       inkscape:connector-curvature="0" />
    <path
       style="fill:none;stroke:#000000;stroke-width:0.26458335px;stroke-linecap:butt;stroke-linejoin:miter;stroke-opacity:1"
       d="m 62.649554,222.20796 1.039437,1.88988 z"
       id="path4583"
       inkscape:connector-curvature="0" />
    <path
       style="fill:#4d4d4d;fill-opacity:1;stroke:#4d4d4d;stroke-width:0;stroke-linecap:butt;stroke-linejoin:miter;stroke-miterlimit:4;stroke-dasharray:none;stroke-opacity:1"
       d="m 60.155459,237.77423 c -0.03205,-0.0453 -0.133835,0.0383 -0.162603,0.005 -0.166068,-0.19339 -0.758954,-0.0466 -0.5944,-0.21305 0.588225,-0.42664 1.082218,-0.47201 0.757003,0.20827 -0.01958,0.041 0.02564,-0.0463 0,0 z"
       id="path4625"
       inkscape:connector-curvature="0"
       sodipodi:nodetypes="cscsc" />
    <path
       style="fill:#4d4d4d;fill-opacity:1;stroke:#4d4d4d;stroke-width:0.26458335px;stroke-linecap:butt;stroke-linejoin:miter;stroke-opacity:1"
       d="m 60.636294,237.31645 0.164546,-0.10706 c 0.36241,0.13867 0.52287,0.0897 0.489206,0.48273 -0.377554,0.32064 -0.564155,0.38109 -0.701866,-0.12524 z"
       id="path4627"
       inkscape:connector-curvature="0"
       sodipodi:nodetypes="ccccc" />
    <path
       style="fill:#4d4d4d;fill-opacity:1;stroke:#4d4d4d;stroke-width:0.26458335px;stroke-linecap:butt;stroke-linejoin:miter;stroke-opacity:1"
       d="m 61.696365,238.1688 0.03874,-0.0166 0.146496,-0.0626 0.182526,0.15032 c 0.412293,0.42685 0.158158,0.47529 -0.190588,0.64351 -0.07675,0.0282 -0.236671,0.25306 -0.215018,0.0696 0.122583,-1.03876 -0.869472,-0.53116 0.03784,-0.78419 z"
       id="path4629"
       inkscape:connector-curvature="0"
       sodipodi:nodetypes="cccccscc" />
    <path
       style="fill:#4d4d4d;fill-opacity:1;stroke:#4d4d4d;stroke-width:0.26458335px;stroke-linecap:butt;stroke-linejoin:miter;stroke-opacity:1"
       d="m 61.747656,237.01649 c 0.774958,0.0717 0.288823,-0.36831 -0.174293,-0.49078 -0.964549,0.21164 -0.332363,0.26007 0.174293,0.49078 z"
       id="path4631"
       inkscape:connector-curvature="0"
       sodipodi:nodetypes="ccc" />
    <path
       style="fill:#4d4d4d;fill-opacity:1;stroke:#4d4d4d;stroke-width:0.26458335px;stroke-linecap:butt;stroke-linejoin:miter;stroke-opacity:1"
       d="m 59.858551,236.76364 0.0089,0.30825 c 0.01412,0.2216 0.196623,-1.02415 -0.0089,-0.30825 z"
       id="path4633"
       inkscape:connector-curvature="0"
       sodipodi:nodetypes="ccc" />
    <path
       style="fill:#4d4d4d;fill-opacity:1;stroke:#4d4d4d;stroke-width:0.26458335px;stroke-linecap:butt;stroke-linejoin:miter;stroke-opacity:1"
       d="m 63.039343,239.55352 c 0.311089,1.10366 -1.09592,0.62987 -0.608053,0.42444 l -0.0385,-0.24034 -0.357443,-0.17228 c -0.268227,0.23803 1.616325,-1.10287 1.003995,-0.0118 z"
       id="path4635"
       inkscape:connector-curvature="0"
       sodipodi:nodetypes="ccccc" />
    <path
       style="fill:#4d4d4d;stroke:#4d4d4d;stroke-width:0.26458335px;stroke-linecap:butt;stroke-linejoin:miter;stroke-opacity:1;fill-opacity:1"
       d="m 63.860713,239.83773 c 0,0 0.08352,0.88533 0.08352,1.01896 0,0.13364 0,0.66818 0,0.66818 0,0 0.902033,0.21715 0.918739,0.13363 0.01669,-0.0835 0.03341,-0.4009 -0.01669,-0.60135 -0.05011,-0.20046 -0.01669,-0.90204 -0.150339,-1.01897 -0.133636,-0.11693 -0.835218,-0.20045 -0.835218,-0.20045 z"
       id="path4639"
       inkscape:connector-curvature="0" />
    <path
       style="fill:#4d4d4d;fill-opacity:1;stroke:#4d4d4d;stroke-width:0.26458335px;stroke-linecap:butt;stroke-linejoin:miter;stroke-opacity:1"
       d="m 62.758226,238.01695 0.323117,0.30034 c 0.447338,0.20194 0.25933,-0.43476 -0.239593,-0.76806 -0.368199,0.0172 -0.187696,0.19598 -0.08352,0.46772 z"
       id="path4641"
       inkscape:connector-curvature="0"
       sodipodi:nodetypes="cccc" />
    <path
       style="fill:#4d4d4d;stroke:#4d4d4d;stroke-width:0.26458335px;stroke-linecap:butt;stroke-linejoin:miter;stroke-opacity:1;fill-opacity:1"
       d="m 64.462072,242.46031 0.417607,0.35079 0.317384,-0.13363 0.35079,-0.3675 c 0,0 0.150339,-0.20045 0,-0.23386 -0.150339,-0.0334 -0.718286,0.0501 -0.902034,0.0167 -0.183747,-0.0334 -0.517834,-0.18374 -0.517834,-0.11693 0,0.0668 -0.06682,0.50113 -0.06682,0.50113 z"
       id="path4645"
       inkscape:connector-curvature="0" />
    <path
       style="fill:#4d4d4d;stroke:#4d4d4d;stroke-width:0.26458335px;stroke-linecap:butt;stroke-linejoin:miter;stroke-opacity:1;fill-opacity:1"
       d="m 64.061167,243.21201 -0.200454,0.63476 c 0,0 -0.300677,0.43431 -0.200451,0.53454 0.100227,0.10022 0.517835,0.31738 0.601356,0.26727 0.08352,-0.0501 0.41761,-0.65147 0.434314,-0.75169 0.01669,-0.10023 0.08352,-0.40091 0,-0.43432 -0.08352,-0.0334 -0.501132,-0.21716 -0.501132,-0.21716 z"
       id="path4647"
       inkscape:connector-curvature="0" />
    <path
       style="fill:#4d4d4d;stroke:#4d4d4d;stroke-width:0.26458335px;stroke-linecap:butt;stroke-linejoin:miter;stroke-opacity:1;fill-opacity:1"
       d="m 65.948757,244.04722 -0.01669,-0.61806 -0.7684,0.33409 c 0,0 -0.367496,0.35079 -0.200454,0.41761 0.167045,0.0668 0.400905,0.13363 0.56795,0.13363 0.167042,0 0.417607,-0.26727 0.417607,-0.26727 z"
       id="path4649"
       inkscape:connector-curvature="0" />
    <path
       style="fill:#4d4d4d;fill-opacity:1;stroke:#4d4d4d;stroke-width:0.26458335px;stroke-linecap:butt;stroke-linejoin:miter;stroke-opacity:1"
       d="m 64.37855,245.01608 c 0,0 -0.06682,0.18374 -0.150339,0.18374 -0.08352,0 -0.634768,-0.10022 -0.634768,0.11693 0,0.21716 -0.451016,0.3508 0.183748,0.46773 0.634767,0.11693 0.885333,0.28397 0.935445,0.0668 0.05011,-0.21715 -0.334086,-0.83521 -0.334086,-0.83521 z"
       id="path4651"
       inkscape:connector-curvature="0" />
    <path
       style="fill:#4d4d4d;fill-opacity:1;stroke:#4d4d4d;stroke-width:0.26458335px;stroke-linecap:butt;stroke-linejoin:miter;stroke-opacity:1"
       d="m 64.512185,246.66981 v 0.20045 c 0,0 -0.05011,0.16704 0.11693,0.16704 0.167044,0 0.434313,-0.0501 0.434313,-0.0501 0,0 0.451017,-0.56795 0.35079,-0.60136 -0.100224,-0.0334 -0.968851,-0.0334 -0.968851,-0.0334 z"
       id="path4653"
       inkscape:connector-curvature="0" />
    <path
       style="fill:#4d4d4d;fill-opacity:1;stroke:#4d4d4d;stroke-width:0.26458335px;stroke-linecap:butt;stroke-linejoin:miter;stroke-opacity:1"
       d="m 62.91269,242.8338 0.03874,-0.0166 0.146496,-0.0626 0.182526,0.15032 c 0.412293,0.42685 0.158158,0.47529 -0.190588,0.64351 -0.07675,0.0282 -0.236671,0.25306 -0.215018,0.0696 0.122583,-1.03876 -0.869472,-0.53116 0.03784,-0.78419 z"
       id="path4629-2"
       inkscape:connector-curvature="0"
       sodipodi:nodetypes="cccccscc" />
    <path
       style="fill:#4d4d4d;fill-opacity:1;stroke:#4d4d4d;stroke-width:0.26458335px;stroke-linecap:butt;stroke-linejoin:miter;stroke-opacity:1"
       d="m 62.855632,241.70707 0.323117,0.30034 c 0.447338,0.20194 0.25933,-0.43476 -0.239593,-0.76806 -0.368199,0.0172 -0.187696,0.19598 -0.08352,0.46772 z"
       id="path4641-4"
       inkscape:connector-curvature="0"
       sodipodi:nodetypes="cccc" />
    <path
       style="fill:#4d4d4d;fill-opacity:1;stroke:#4d4d4d;stroke-width:0.26458335px;stroke-linecap:butt;stroke-linejoin:miter;stroke-opacity:1"
       d="m 65.043974,245.06601 0.164546,-0.10706 c 0.36241,0.13867 0.52287,0.0897 0.489206,0.48273 -0.377554,0.32064 -0.564155,0.38109 -0.701866,-0.12524 z"
       id="path4627-4"
       inkscape:connector-curvature="0"
       sodipodi:nodetypes="ccccc" />
    <path
       style="fill:#4d4d4d;fill-opacity:1;stroke:#4d4d4d;stroke-width:0.26458335px;stroke-linecap:butt;stroke-linejoin:miter;stroke-opacity:1"
       d="m 66.000696,245.8967 0.0089,0.30825 c 0.01412,0.2216 0.196623,-1.02415 -0.0089,-0.30825 z"
       id="path4633-9"
       inkscape:connector-curvature="0"
       sodipodi:nodetypes="ccc" />
    <path
       style="fill:#4d4d4d;fill-opacity:1;stroke:#4d4d4d;stroke-width:0.26458335px;stroke-linecap:butt;stroke-linejoin:miter;stroke-opacity:1"
       d="m 66.100922,244.87773 0.0089,0.30825 c 0.01412,0.2216 0.196623,-1.02415 -0.0089,-0.30825 z"
       id="path4633-3"
       inkscape:connector-curvature="0"
       sodipodi:nodetypes="ccc" />
    <path
       style="fill:#4d4d4d;fill-opacity:1;stroke:#4d4d4d;stroke-width:0.26458335px;stroke-linecap:butt;stroke-linejoin:miter;stroke-opacity:1"
       d="m 63.311296,240.56801 0.0089,0.30825 c 0.01412,0.2216 0.196623,-1.02415 -0.0089,-0.30825 z"
       id="path4633-4"
       inkscape:connector-curvature="0"
       sodipodi:nodetypes="ccc" />
    <path
       style="fill:#4d4d4d;fill-opacity:1;stroke:#4d4d4d;stroke-width:0.26458335px;stroke-linecap:butt;stroke-linejoin:miter;stroke-opacity:1"
       d="m 63.645383,239.08133 0.0089,0.30825 c 0.01412,0.2216 0.196623,-1.02415 -0.0089,-0.30825 z"
       id="path4633-37"
       inkscape:connector-curvature="0"
       sodipodi:nodetypes="ccc" />
    <path
       style="fill:#4d4d4d;fill-opacity:1;stroke:#4d4d4d;stroke-width:0.26458335px;stroke-linecap:butt;stroke-linejoin:miter;stroke-opacity:1"
       d="m 62.004791,237.62422 0.154532,0.26686 c 0.117884,0.18818 -0.314494,-0.9943 -0.154532,-0.26686 z"
       id="path4633-90"
       inkscape:connector-curvature="0"
       sodipodi:nodetypes="ccc"
       inkscape:transform-center-x="-0.00027725974"
       inkscape:transform-center-y="0.099338223" />
    <ellipse
       style="fill:#ac9d93;stroke-width:0.25870371"
       id="path101-2"
       cx="41.199406"
       cy="197.59227"
       rx="0.52266043"
       ry="0.097998828" />
  </g>
</svg>
